<svg viewBox="0 0 190.75 44.75" fill="none" xmlns="http://www.w3.org/2000/svg">
<g id="ProRetoque.photo-logo">
<!-- PRORETOQUE (bold) -->
<path d="M9.12896 0.771858C14.2904 0.771858 16.8903 4.77244 16.8903 8.76662C16.8903 12.7608 14.2904 16.7294 9.12896 16.7294H3.86506V24.6921H0.375V0.771858H9.12896ZM9.12896 13.1513C12.0363 13.1513 13.4707 10.9237 13.4707 8.69621C13.4707 6.46869 12.0363 4.20916 9.12896 4.20916H3.86506V13.1513H9.12896Z" fill="black"/>
<path d="M27.2196 12.556C30.1269 12.556 31.5614 10.4693 31.5614 8.38897C31.5614 6.30866 30.1269 4.25396 27.2196 4.25396H21.9173V24.6857H18.4977V0.771858H27.2196C32.4195 0.771858 35.0194 4.59961 35.0194 8.38897C35.0194 11.7687 32.9318 14.9819 28.827 15.6988L36.3834 24.6857H31.9008L23.1788 14.1946V12.556H27.2196Z" fill="black"/>
<path d="M39.4252 4.00433C41.6153 1.7832 44.6891 0.381401 48.0447 0.381401C51.4003 0.381401 54.4741 1.7832 56.6962 4.00433C58.8479 6.22545 60.2503 9.27229 60.2503 12.652C60.2503 16.0317 58.8479 19.0785 56.6962 21.2996C54.4741 23.5592 51.4259 24.9226 48.0447 24.9226C44.6635 24.9226 41.6153 23.5528 39.4252 21.2996C37.2735 19.0785 35.8711 16.0317 35.8711 12.652C35.8711 9.27229 37.2735 6.22545 39.4252 4.00433Z" fill="black"/>
<!-- RETOQUE (thin) -->
<path d="M62.3571 24.6857H61.8576V0.759056H69.9008C79.2119 0.759056 79.2119 14.7387 69.9008 14.7387H66.1418L76.8489 24.6857H76.0868L65.3797 14.7387V14.2266H69.9008C78.5459 14.2266 78.5459 1.30313 69.9008 1.30313H62.3507V24.6857H62.3571Z" fill="black"/>
<path d="M79.3912 24.1737H92.1091V24.6857H78.8404V0.79106H92.0386V1.30313H79.3848V12.4472H91.7633V12.9912H79.3848V24.1673L79.3912 24.1737Z" fill="black"/>
<path d="M91.3406 0.79106V1.30313H99.3838V24.6857H99.8833V1.30313H107.933V0.79106H91.3406Z" fill="black"/>
<path d="M109.15 3.99793C111.34 1.7448 114.42 0.381401 117.769 0.381401C121.118 0.381401 124.198 1.7448 126.427 3.99793C128.617 6.21265 130.019 9.2851 130.019 12.6584C130.019 16.0317 128.617 19.1041 126.427 21.3188C124.205 23.572 121.157 24.9354 117.769 24.9354C114.381 24.9354 111.34 23.572 109.15 21.3188C106.959 19.1041 105.557 16.0317 105.557 12.6584C105.557 9.2851 106.959 6.21265 109.15 3.99793ZM126.049 4.40119C123.929 2.25047 120.99 0.92548 117.769 0.92548C114.548 0.92548 111.647 2.25687 109.527 4.40119C107.44 6.51349 106.108 9.41311 106.108 12.652C106.108 15.8909 107.44 18.7905 109.527 20.9028C111.647 23.0535 114.554 24.3785 117.769 24.3785C120.984 24.3785 123.929 23.0471 126.049 20.9028C128.137 18.7905 129.437 15.8909 129.437 12.652C129.437 9.41311 128.137 6.51349 126.049 4.40119Z" fill="black"/>
<path d="M155.968 24.5897H155.084L151.863 21.7221C149.73 23.732 146.881 24.929 143.723 24.929C140.4 24.929 137.352 23.5656 135.181 21.3124C133.01 19.0977 131.62 16.0253 131.62 12.652C131.62 9.27869 133.01 6.20625 135.181 3.99153C137.352 1.7384 140.4 0.375 143.723 0.375C147.047 0.375 150.095 1.7384 152.298 3.99153C154.469 6.20625 155.859 9.27869 155.859 12.652C155.859 16.0253 154.469 19.0977 152.298 21.3124L155.961 24.5833L155.968 24.5897ZM151.933 4.40119C149.833 2.25047 146.951 0.92548 143.73 0.92548C140.509 0.92548 137.659 2.25687 135.559 4.40119C133.49 6.51349 132.171 9.41311 132.171 12.652C132.171 15.8909 133.49 18.7905 135.559 20.9028C137.659 23.0535 140.541 24.3785 143.73 24.3785C146.714 24.3785 149.429 23.2199 151.459 21.3444L144.306 14.9691H145.12L151.863 20.9668L151.933 20.8964C154.002 18.7841 155.321 15.8845 155.321 12.6456C155.321 9.40671 154.002 6.50709 151.933 4.39478V4.40119Z" fill="black"/>
<path d="M157.677 18.0992V0.759056H158.222V18.1376C158.222 22.2598 162.39 24.3017 166.047 24.3017C169.704 24.3017 173.872 22.2598 173.872 18.0992V0.759056H174.417V18.1376C174.417 22.535 169.973 24.8522 166.041 24.8522C162.109 24.8522 157.665 22.535 157.665 18.1056L157.677 18.0992Z" fill="black"/>
<path d="M177.599 24.1096H190.33V24.6217H177.055V0.759056H190.266V1.27113H177.606V12.4023H189.997V12.9464H177.606V24.1096H177.599Z" fill="black"/>
<!-- .photo -->
<path d="M123.757 40.6753C123.66 40.6753 123.577 40.6368 123.5 40.5664C123.424 40.4896 123.392 40.3936 123.392 40.2656C123.392 40.1504 123.43 40.0544 123.5 39.9776C123.577 39.9007 123.66 39.8687 123.757 39.8687C123.853 39.8687 123.936 39.9071 124.013 39.9776C124.09 40.0544 124.122 40.144 124.122 40.2656C124.122 40.3936 124.083 40.496 124 40.5664C123.923 40.6433 123.84 40.6753 123.757 40.6753Z" fill="#565656"/>
<path d="M132.229 35.2665C132.543 34.5368 132.997 33.9863 133.58 33.615C134.163 33.2438 134.809 33.0581 135.501 33.0581C136.039 33.0581 136.532 33.1542 136.98 33.3526C137.429 33.551 137.813 33.8199 138.139 34.1591C138.46 34.5048 138.709 34.9144 138.882 35.3881C139.055 35.8618 139.145 36.3802 139.145 36.9435C139.145 37.5068 139.055 38.0061 138.876 38.4733C138.697 38.947 138.447 39.3503 138.127 39.6959C137.806 40.0416 137.422 40.3104 136.968 40.5024C136.519 40.7009 136.033 40.7969 135.501 40.7969C135.155 40.7969 134.809 40.7521 134.476 40.6561C134.143 40.56 133.836 40.4192 133.548 40.2336C133.26 40.048 133.004 39.8239 132.773 39.5487C132.543 39.2799 132.357 38.9662 132.216 38.6014H132.171V44.375H131.806V33.2694H132.171V35.2537H132.222L132.229 35.2665ZM138.799 36.9499C138.799 36.4762 138.722 36.0218 138.568 35.5865C138.415 35.1513 138.197 34.7736 137.909 34.4472C137.621 34.1207 137.275 33.8583 136.871 33.6598C136.468 33.4614 136.007 33.3654 135.501 33.3654C134.995 33.3654 134.572 33.4614 134.163 33.6534C133.759 33.8455 133.407 34.1015 133.112 34.4215C132.818 34.7416 132.587 35.1192 132.414 35.5545C132.248 35.9898 132.158 36.4506 132.158 36.9371C132.158 37.4236 132.242 37.8845 132.414 38.3197C132.581 38.755 132.818 39.1326 133.112 39.4527C133.407 39.7727 133.759 40.0288 134.163 40.2208C134.566 40.4128 135.014 40.5088 135.501 40.5088C135.988 40.5088 136.462 40.4128 136.871 40.2208C137.281 40.0288 137.627 39.7727 137.909 39.4527C138.191 39.1326 138.415 38.755 138.568 38.3197C138.722 37.8845 138.799 37.43 138.799 36.9563V36.9499Z" fill="#565656"/>
<path d="M146.676 35.2025C146.778 34.8632 146.932 34.5624 147.13 34.2999C147.329 34.0375 147.553 33.8135 147.803 33.6278C148.059 33.4422 148.334 33.3014 148.629 33.2054C148.923 33.1094 149.231 33.0646 149.551 33.0646C150.057 33.0646 150.479 33.1542 150.819 33.3334C151.158 33.5126 151.427 33.7494 151.626 34.0503C151.824 34.3511 151.972 34.6776 152.055 35.0488C152.138 35.4201 152.183 35.7977 152.183 36.1754V40.5856H151.831V36.2074C151.831 35.913 151.799 35.5929 151.735 35.2537C151.671 34.9144 151.549 34.6072 151.376 34.3319C151.203 34.0567 150.966 33.8263 150.672 33.6406C150.377 33.455 149.999 33.3654 149.545 33.3654C149.141 33.3654 148.763 33.4486 148.411 33.6086C148.059 33.7751 147.751 34.0055 147.489 34.3127C147.226 34.62 147.021 34.9912 146.868 35.4329C146.714 35.8746 146.637 36.3738 146.637 36.9307V40.5792H146.285V28.5839H146.637V35.2025H146.676Z" fill="#565656"/>
<path d="M166.867 36.9179C166.867 37.4876 166.771 38.0125 166.591 38.4861C166.406 38.9598 166.143 39.3695 165.804 39.7151C165.464 40.0608 165.061 40.3232 164.587 40.5152C164.113 40.7073 163.601 40.8033 163.037 40.8033C162.474 40.8033 161.961 40.7073 161.5 40.5152C161.033 40.3232 160.629 40.0608 160.296 39.7151C159.957 39.3695 159.695 38.9598 159.509 38.4861C159.323 38.0125 159.233 37.4876 159.233 36.9179C159.233 36.3482 159.323 35.8234 159.509 35.3561C159.695 34.8824 159.957 34.4792 160.296 34.1399C160.636 33.8007 161.039 33.5382 161.5 33.3462C161.968 33.1542 162.48 33.0581 163.037 33.0581C163.594 33.0581 164.113 33.1542 164.587 33.3462C165.054 33.5382 165.464 33.8007 165.804 34.1399C166.143 34.4792 166.406 34.8824 166.591 35.3561C166.777 35.8298 166.867 36.3482 166.867 36.9179ZM166.515 36.9179C166.515 36.4314 166.438 35.9706 166.278 35.5353C166.117 35.1 165.887 34.7224 165.586 34.4023C165.285 34.0823 164.92 33.8263 164.491 33.6406C164.062 33.455 163.575 33.3654 163.037 33.3654C162.499 33.3654 162.013 33.455 161.59 33.6406C161.167 33.8263 160.802 34.0823 160.501 34.4023C160.2 34.7224 159.97 35.1064 159.81 35.5353C159.65 35.9706 159.573 36.4314 159.573 36.9179C159.573 37.4044 159.65 37.878 159.81 38.3133C159.97 38.7486 160.2 39.1262 160.501 39.4463C160.802 39.7663 161.167 40.0224 161.59 40.2144C162.013 40.4064 162.493 40.5024 163.037 40.5024C163.582 40.5024 164.062 40.4064 164.491 40.2144C164.92 40.0224 165.285 39.7663 165.586 39.4463C165.887 39.1262 166.117 38.7486 166.278 38.3133C166.438 37.878 166.515 37.4172 166.515 36.9179Z" fill="#565656"/>
<path d="M176.37 40.7265C176.203 40.7585 176.037 40.7713 175.877 40.7713C175.307 40.7713 174.897 40.6112 174.654 40.2848C174.41 39.9648 174.289 39.5551 174.289 39.0686V33.5766H172.701V33.2758H174.269V31.1315H174.622V33.2758H176.767V33.5766H174.622V39.0686C174.622 39.5679 174.743 39.9199 174.987 40.1376C175.23 40.3552 175.55 40.464 175.954 40.464C176.248 40.464 176.517 40.4192 176.761 40.3232L176.805 40.592C176.677 40.6433 176.53 40.6881 176.364 40.7201L176.37 40.7265Z" fill="#565656"/>
<path d="M190.375 36.9179C190.375 37.4876 190.279 38.0125 190.1 38.4861C189.914 38.9598 189.651 39.3695 189.312 39.7151C188.973 40.0608 188.569 40.3232 188.095 40.5152C187.621 40.7073 187.109 40.8033 186.546 40.8033C185.982 40.8033 185.47 40.7073 185.009 40.5152C184.541 40.3232 184.138 40.0608 183.805 39.7151C183.465 39.3695 183.203 38.9598 183.017 38.4861C182.831 38.0125 182.742 37.4876 182.742 36.9179C182.742 36.3482 182.831 35.8234 183.017 35.3561C183.203 34.8824 183.465 34.4792 183.805 34.1399C184.144 33.8007 184.548 33.5382 185.009 33.3462C185.476 33.1542 185.988 33.0581 186.546 33.0581C187.103 33.0581 187.621 33.1542 188.095 33.3462C188.563 33.5382 188.973 33.8007 189.312 34.1399C189.651 34.4792 189.914 34.8824 190.1 35.3561C190.285 35.8298 190.375 36.3482 190.375 36.9179ZM190.023 36.9179C190.023 36.4314 189.946 35.9706 189.786 35.5353C189.626 35.1 189.395 34.7224 189.094 34.4023C188.793 34.0823 188.428 33.8263 187.999 33.6406C187.57 33.455 187.083 33.3654 186.546 33.3654C186.008 33.3654 185.521 33.455 185.098 33.6406C184.676 33.8263 184.311 34.0823 184.01 34.4023C183.709 34.7224 183.478 35.1064 183.318 35.5353C183.158 35.9706 183.081 36.4314 183.081 36.9179C183.081 37.4044 183.158 37.878 183.318 38.3133C183.478 38.7486 183.709 39.1262 184.01 39.4463C184.311 39.7663 184.676 40.0224 185.098 40.2144C185.521 40.4064 186.001 40.5024 186.546 40.5024C187.09 40.5024 187.57 40.4064 187.999 40.2144C188.428 40.0224 188.793 39.7663 189.094 39.4463C189.395 39.1262 189.626 38.7486 189.786 38.3133C189.946 37.878 190.023 37.4172 190.023 36.9179Z" fill="#565656"/>
</g>
</svg>
